<?xml version="1.0" encoding="utf-8"?>
<!-- Generator: Adobe Illustrator 16.0.0, SVG Export Plug-In . SVG Version: 6.00 Build 0)  -->
<!DOCTYPE svg PUBLIC "-//W3C//DTD SVG 1.1//EN" "http://www.w3.org/Graphics/SVG/1.1/DTD/svg11.dtd">
<svg version="1.1" xmlns="http://www.w3.org/2000/svg" xmlns:xlink="http://www.w3.org/1999/xlink" x="0px" y="0px" width="500px"
	 height="500px" viewBox="0 0 500 500" enable-background="new 0 0 500 500" xml:space="preserve">
<g id="Layer_1" display="none">
	
		<image display="inline" overflow="visible" width="1300" height="866" xlink:href="105672310-lemon-twist-on-a-white-background-lemon-peel-.jpg"  transform="matrix(0.3 0 0 0.3 55 120)">
	</image>
</g>
<g id="Layer_3">
	<path fill="#508A8A" d="M11.563,154.781c0,0,8.307,6.82,20.647,5.521s33.773,33.124,39.618,45.464
		c5.846,12.34,22.732,37.669,29.877,75.99c7.144,38.319,18.186,65.272,18.186,65.272l23.707-122.428l-6.82-15.588l-8.118-15.263
		l-8.444-16.885l-28.577-30.203l-14.058-5.845l-49.267,1.624L11.563,154.781"/>
	<path fill="#508A8A" d="M260.613,164.631c0,0,12.99,12.124,16.454,29.01c3.465,16.887,9.093,32.474,10.392,64.083
		c1.299,31.609-2.164,31.544-2.164,52.359c0,20.816,15.155,5.229,15.155,5.229l31.823-97.639l-1.939-6.821l-0.659-7.034
		l-12.989-33.773l-17.104-16.02l-23.599-3.031L260.613,164.631z"/>
</g>
<g id="Layer_2">
	<path fill="#CEB23C" d="M440.55,146.23c-16.455-6.495-30.744-3.897-36.372-1.732c-5.624,2.163-39.352,16.867-73.1,65.272
		c-0.122-29.712-23.275-60.112-29.952-66.789c-6.93-6.928-19.917-9.958-38.971-11.691c-19.051-1.731-25.978,0-29.442,0
		c-3.464,0-42.866,0.434-79.67,69.712c-3.477,6.544-5.539,11.181-9.475,20.14c-0.979-4.583-10.592-23.604-14.34-30.098
		c-20.501-35.518-38.781-54.124-49.794-60.619c-5.073-2.992-15.155-9.525-35.505-5.196c-20.351,4.33-33.34,19.484-28.578,13.856
		c0,0-6.711,5.628-3.788,6.927c2.922,1.299,0,8.768,0,8.768c5.384,5.521,15.263-4.546,17.536-5.521
		c2.273-0.975,9.742-5.196,36.696-3.897c26.954,1.299,28.411,9.826,37.209,19.702c6.956,7.808,20.785,25.114,38.059,62.334
		c-25.992,64.864-24.824,134.676-24.824,134.676s4.767,3.03,16.457,7.792c11.691,4.762,29.877,7.794,38.537,5.63
		c8.66-2.165,9.957-11.26,9.957-11.26c16.887-129.465,44.166-156.742,56.289-175.361c12.124-18.619,40.267-29.442,44.164-30.308
		c3.896-0.866,19.053,3.463,29.876,13.423c9.059,8.334,16.597,31.514,18.816,38.86c-33.354,48.532-52.156,123.729-52.156,123.729
		v1.73c12.989,15.588,44.599,19.918,45.464,15.154s16.021-46.764,46.33-89.195c30.31-42.432,30.744-39.836,56.288-64.949
		c25.546-25.113,39.62-1.299,39.62-1.299s14.122-0.789,18.832-6.495c5.629-6.819,3.731-11.317,3.731-11.317
		C474.588,157.861,457.002,152.725,440.55,146.23z"/>
</g>
</svg>
